# xmcd
#
# Track frame offsets: 
#        150
#        14301
#        33038
#        44977
#        60848
#        78076
#        100672
#        119384
#        135086
#        157879
#        175327
#        195527
#        218916
#        238319
#        264504
#        275597
#        283395
#        287458
#
# Disc length: 3905 seconds
#
# Revision: 0
# Processed by: cddbd v1.5.2PL0 Copyright (c) Steve Scherf et al.
# Submitted via: ExactAudioCopy v0.95b4
#
DISCID=f80f3f12
DTITLE=Sergey Sirotin - Crystal Rain
DYEAR=2003
DGENRE=Instrumental Pop
TTITLE0=Small miracle
TTITLE1=Night City
TTITLE2=Spellbound
TTITLE3=New Horizon
TTITLE4=Princess
TTITLE5=Touch
TTITLE6=Road
TTITLE7=Crystal Rain
TTITLE8=Tales of Galaxy
TTITLE9=Magic
TTITLE10=Tenderness
TTITLE11=Walking Together
TTITLE12=Nostalgia
TTITLE13=By Candle Light
TTITLE14=Story
TTITLE15=Finale
TTITLE16=Demo - Magic Sax - World Hits
TTITLE17=Demo - Sax Dance - World Hits
EXTD=
EXTT0=
EXTT1=
EXTT2=
EXTT3=
EXTT4=
EXTT5=
EXTT6=
EXTT7=
EXTT8=
EXTT9=
EXTT10=
EXTT11=
EXTT12=
EXTT13=
EXTT14=
EXTT15=
EXTT16=
EXTT17=
PLAYORDER=
